<svg width="60" height="60" viewBox="0 0 60 60" fill="none" xmlns="http://www.w3.org/2000/svg">
<path d="M20.8828 9.89648H39.5215C40.418 9.89648 41.1445 10.623 41.1445 11.5195V16.3828H19.2598V11.5195C19.2598 10.623 19.9863 9.89648 20.8828 9.89648Z" fill="white"/>
<path d="M42.7617 18H17.6367V11.5195C17.6367 9.73242 19.0898 8.2793 20.877 8.2793H39.5156C41.3027 8.2793 42.7559 9.73242 42.7559 11.5195V18H42.7617ZM20.8828 14.7598H39.5215V11.5195H20.877L20.8828 14.7598Z" fill="#333333"/>
<path d="M9.53906 13.9512H50.0566C50.9531 13.9512 51.6797 14.6777 51.6797 15.5742V44.748C51.6797 45.6445 50.9531 46.3711 50.0566 46.3711H9.53906C8.64258 46.3711 7.91602 45.6445 7.91602 44.748V15.5742C7.91602 14.6719 8.64258 13.9512 9.53906 13.9512Z" fill="white"/>
<path d="M48.4336 46.3652H11.1562C9.36914 46.3652 7.91602 44.9121 7.91602 43.125V17.1914C7.91602 15.4043 9.36914 13.9512 11.1562 13.9512H48.4336C50.2207 13.9512 51.6738 15.4043 51.6738 17.1914V43.1191C51.6738 44.9063 50.2207 46.3652 48.4336 46.3652ZM11.1562 17.1914V43.1191H48.4336V17.1855H11.1562V17.1914Z" fill="#333333"/>
<path d="M19.2598 30.1582C19.2598 31.5417 19.5427 32.9116 20.0925 34.1898C20.6422 35.468 21.448 36.6294 22.4639 37.6077C23.4797 38.586 24.6856 39.362 26.0129 39.8914C27.3401 40.4209 28.7626 40.6934 30.1992 40.6934C31.6358 40.6934 33.0583 40.4209 34.3856 39.8914C35.7128 39.362 36.9188 38.586 37.9346 37.6077C38.9504 36.6294 39.7562 35.468 40.306 34.1898C40.8557 32.9116 41.1387 31.5417 41.1387 30.1582C41.1387 27.3641 39.9861 24.6844 37.9346 22.7087C35.883 20.733 33.1005 19.623 30.1992 19.623C27.2979 19.623 24.5154 20.733 22.4639 22.7087C20.4123 24.6844 19.2598 27.3641 19.2598 30.1582Z" fill="#8CAAFF"/>
<path d="M30.1992 42.3105C23.2734 42.3105 17.6367 36.8613 17.6367 30.1582C17.6367 23.4551 23.2734 18.0059 30.1992 18.0059C37.125 18.0059 42.7617 23.4609 42.7617 30.1582C42.7617 36.8555 37.125 42.3105 30.1992 42.3105ZM30.1992 21.2402C25.0605 21.2402 20.8828 25.2363 20.8828 30.1523C20.8828 35.0684 25.0605 39.0703 30.1992 39.0703C35.3379 39.0703 39.5156 35.0742 39.5156 30.1582C39.5156 25.2422 35.3379 21.2402 30.1992 21.2402Z" fill="#333333"/>
<path d="M25.7402 30.1582C25.7402 31.232 26.21 32.2619 27.0462 33.0212C27.8825 33.7805 29.0166 34.207 30.1992 34.207C31.3818 34.207 32.516 33.7805 33.3522 33.0212C34.1884 32.2619 34.6582 31.232 34.6582 30.1582C34.6582 29.0844 34.1884 28.0546 33.3522 27.2952C32.516 26.5359 31.3818 26.1094 30.1992 26.1094C29.0166 26.1094 27.8825 26.5359 27.0462 27.2952C26.21 28.0546 25.7402 29.0844 25.7402 30.1582Z" fill="white"/>
<path d="M30.1992 35.8301C26.8477 35.8301 24.123 33.2871 24.123 30.1582C24.123 27.0293 26.8477 24.4863 30.1992 24.4863C33.5508 24.4863 36.2754 27.0293 36.2754 30.1582C36.2754 33.2871 33.5508 35.8301 30.1992 35.8301ZM30.1992 27.7266C28.6348 27.7266 27.3633 28.8164 27.3633 30.1582C27.3633 31.5 28.6348 32.5898 30.1992 32.5898C31.7637 32.5898 33.0352 31.5 33.0352 30.1582C33.0352 28.8164 31.7637 27.7266 30.1992 27.7266Z" fill="#333333"/>
</svg>
