<svg width="30" height="30" viewBox="0 0 30 30" fill="none" xmlns="http://www.w3.org/2000/svg">
<path d="M14.9999 0C23.2831 0 30 6.88559 30 15.3798C30 22.1749 25.702 27.9399 19.742 29.9736C18.9923 30.1159 18.7171 29.6399 18.7171 29.2337C18.7171 28.867 18.731 27.6554 18.7375 26.3703C22.9105 27.3007 23.7911 24.5557 23.7911 24.5557C24.4734 22.778 25.4566 22.3053 25.4566 22.3053C26.8176 21.3508 25.354 21.3704 25.354 21.3704C23.8477 21.4789 23.0546 22.9553 23.0546 22.9553C21.7167 25.3065 19.5455 24.6268 18.6895 24.2338C18.5549 23.2398 18.1662 22.5613 17.7372 22.1772C21.0689 21.7883 24.5713 20.4696 24.5713 14.5765C24.5713 12.8974 23.9853 11.5254 23.0258 10.4483C23.1815 10.061 23.695 8.49671 22.8805 6.37826C22.8805 6.37826 21.6209 5.96492 18.7544 7.95475C17.5579 7.61398 16.2746 7.44309 14.9999 7.43723C13.7251 7.44309 12.4409 7.61398 11.2421 7.95475C8.37913 5.96492 7.12126 6.37826 7.12126 6.37826C6.30478 8.49671 6.81846 10.061 6.97421 10.4483C6.01242 11.5254 5.43043 12.8974 5.43043 14.5765C5.43043 20.4836 8.93951 21.7843 12.2797 22.165C11.7417 22.6423 11.2623 23.5782 11.2623 25.0131C11.2623 27.071 11.2797 28.7272 11.2797 29.2337C11.2797 29.643 11.0096 30.1226 10.2493 29.9715C4.29253 27.9356 0 22.1726 0 15.3798C0 6.88559 6.71588 0 14.9999 0ZM24.382 21.9088C24.415 21.9852 24.5322 22.0081 24.6391 21.9557C24.7479 21.9055 24.809 21.8013 24.7737 21.7247C24.7414 21.646 24.6239 21.6241 24.5154 21.6768C24.4063 21.7269 24.3442 21.8321 24.382 21.9088ZM23.6441 22.5838C23.7157 22.6518 23.8555 22.6202 23.9504 22.5128C24.0485 22.4055 24.0669 22.2622 23.9944 22.1931C23.9206 22.1251 23.785 22.157 23.6866 22.2642C23.5885 22.3727 23.5694 22.5151 23.6441 22.5838ZM23.1379 23.4475C23.2298 23.5129 23.3801 23.4516 23.473 23.3148C23.5649 23.178 23.5649 23.014 23.471 22.9483C23.3779 22.8826 23.2298 22.9417 23.1357 23.0774C23.044 23.2165 23.044 23.3805 23.1379 23.4475ZM22.2819 24.4477C22.3641 24.5407 22.5392 24.5157 22.6674 24.3889C22.7985 24.2649 22.835 24.0889 22.7526 23.9959C22.6694 23.9027 22.4933 23.929 22.3641 24.0548C22.2339 24.1785 22.1942 24.3558 22.2819 24.4477ZM21.1755 24.7854C21.2118 24.9059 21.3804 24.9606 21.5503 24.9095C21.72 24.8567 21.831 24.7156 21.7967 24.5939C21.7615 24.4727 21.592 24.4156 21.4209 24.4704C21.2515 24.5228 21.1402 24.6629 21.1755 24.7854ZM19.9164 24.9287C19.9122 25.0555 20.0562 25.1607 20.2346 25.163C20.4139 25.167 20.559 25.0644 20.561 24.9396C20.561 24.8115 20.4201 24.7073 20.2408 24.7043C20.0624 24.7007 19.9164 24.8026 19.9164 24.9287ZM18.6794 24.88C18.6581 25.0038 18.782 25.1309 18.9591 25.1648C19.1333 25.1974 19.2945 25.121 19.3166 24.9982C19.3382 24.8714 19.212 24.7443 19.0381 24.7114C18.8608 24.6799 18.702 24.7542 18.6794 24.88Z" fill="#161614"/>
</svg>
