<svg width="71" height="38" viewBox="0 0 71 38" fill="none" xmlns="http://www.w3.org/2000/svg">
<path d="M23.712 18.372C25.344 13.46 26.432 11.004 26.976 11.004C27.04 11.004 27.112 11.012 27.192 11.028C27.448 11.044 27.736 10.94 28.056 10.716C28.472 10.364 28.952 10.092 29.496 9.9C30.056 9.708 30.6 9.636 31.128 9.684C32.36 9.796 33.136 10.444 33.456 11.628V11.7C33.376 11.924 33.296 12.108 33.216 12.252H33.312C32.912 12.748 32.528 13.396 32.16 14.196C31.792 14.98 31.512 15.596 31.32 16.044C31.128 16.476 30.856 17.028 30.504 17.7C30.152 18.372 29.744 19.196 29.28 20.172C28.832 21.148 28.36 22.116 27.864 23.076C26.68 25.38 25.504 27.188 24.336 28.5C23.744 29.22 22.944 29.572 21.936 29.556C21.504 29.54 21.088 29.428 20.688 29.22C20.288 29.012 19.976 28.692 19.752 28.26L19.248 26.748C19.04 26.924 18.8 27.148 18.528 27.42C18.256 27.692 17.968 27.972 17.664 28.26C16.96 28.932 16.416 29.284 16.032 29.316C15.648 29.348 15.32 29.348 15.048 29.316C14.776 29.3 14.52 29.244 14.28 29.148C13.736 28.94 13.384 28.54 13.224 27.948C12.952 25.212 13.088 21.716 13.632 17.46C13.776 16.42 13.904 15.396 14.016 14.388C14.288 12.964 14.8 11.94 15.552 11.316C16.192 10.772 16.816 10.612 17.424 10.836C17.696 10.932 17.904 11.092 18.048 11.316C18.192 11.54 18.24 11.812 18.192 12.132C18.224 13.108 18.216 13.836 18.168 14.316C18.104 15.132 18.08 15.732 18.096 16.116C18.112 16.5 18.104 16.82 18.072 17.076C18.056 17.316 18.04 17.548 18.024 17.772C18.024 17.98 18.032 18.156 18.048 18.3C18.08 18.428 18.144 18.452 18.24 18.372C18.608 17.588 18.92 17.02 19.176 16.668C19.432 16.316 19.704 15.948 19.992 15.564C20.44 15.164 20.832 15.012 21.168 15.108C21.344 15.14 21.528 15.204 21.72 15.3C21.912 15.38 22.168 15.452 22.488 15.516C22.696 15.692 22.832 15.884 22.896 16.092C22.944 16.14 22.992 16.188 23.04 16.236C23.088 16.268 23.12 16.316 23.136 16.38C23.168 16.428 23.208 16.548 23.256 16.74C23.32 16.932 23.384 17.14 23.448 17.364C23.512 17.572 23.568 17.78 23.616 17.988C23.664 18.18 23.696 18.308 23.712 18.372ZM24.288 28.428C24.288 28.46 24.288 28.468 24.288 28.452C24.304 28.42 24.312 28.388 24.312 28.356L24.288 28.428ZM43.8345 12.228C44.3785 12.516 44.7225 12.94 44.8665 13.5C44.5465 15.292 44.2585 17.076 44.0025 18.852C43.7465 20.612 43.4985 22.092 43.2585 23.292C43.0185 24.476 42.8505 25.364 42.7545 25.956C42.6745 26.548 42.5785 27.14 42.4665 27.732L42.3225 28.236C42.2905 28.412 42.2585 28.572 42.2265 28.716C42.1945 28.876 42.1625 29.044 42.1305 29.22C41.6825 29.732 41.0745 29.988 40.3065 29.988C39.4905 29.988 38.8425 29.78 38.3625 29.364C38.0745 29.14 38.0265 28.668 38.2185 27.948C38.2985 27.66 38.3465 27.292 38.3625 26.844C38.3945 26.38 38.4265 25.996 38.4585 25.692V25.644C37.9785 25.82 37.5465 26.052 37.1625 26.34C36.7785 26.612 36.5385 26.788 36.4425 26.868C36.3465 26.932 36.2185 26.988 36.0585 27.036C35.8985 27.068 35.7545 27.092 35.6265 27.108C35.3225 27.124 35.1145 27.172 35.0025 27.252C34.0745 28.916 33.2425 29.844 32.5065 30.036C32.0425 30.18 31.5785 30.212 31.1145 30.132C30.6505 30.068 30.2825 29.796 30.0105 29.316C29.4985 28.836 29.6265 27.524 30.3945 25.38C30.8105 24.244 31.4025 22.884 32.1705 21.3C32.9545 19.7 33.7065 18.308 34.4265 17.124C35.9785 14.58 37.6825 12.436 39.5385 10.692C39.8425 10.564 40.1705 10.42 40.5225 10.26C40.8745 10.084 41.2185 9.988 41.5545 9.972C41.9065 9.956 42.2665 9.996 42.6345 10.092C43.0025 10.188 43.3145 10.332 43.5705 10.524C44.1625 10.972 44.2505 11.54 43.8345 12.228ZM38.6985 18.54C38.3625 19.5 38.0265 20.388 37.6905 21.204C37.3545 22.004 37.0665 22.708 36.8265 23.316L38.7225 23.244C38.8505 22.22 38.9945 21.204 39.1545 20.196C39.3145 19.188 39.4665 18.18 39.6105 17.172L38.6985 18.54ZM38.0505 23.34C38.2745 23.34 38.4985 23.324 38.7225 23.292V23.268C38.5145 23.284 38.3225 23.3 38.1465 23.316C37.9705 23.332 37.9385 23.34 38.0505 23.34ZM56.4214 23.364C55.7814 23.844 55.1094 24.196 54.4054 24.42C53.7174 24.628 53.0294 24.684 52.3414 24.588C51.6534 24.492 51.0614 24.196 50.5654 23.7C50.1174 25.124 49.8134 26.532 49.6534 27.924C49.5894 28.18 49.4774 28.412 49.3174 28.62C49.0294 29.468 48.3974 30.036 47.4214 30.324C46.4614 30.596 45.5654 30.548 44.7334 30.18C44.3494 30.004 44.0294 29.748 43.7734 29.412C43.5174 29.076 43.3894 28.668 43.3894 28.188C44.4934 24.364 45.5574 21.228 46.5814 18.78C46.8054 18.268 46.9814 17.852 47.1094 17.532C47.2534 17.212 47.3814 16.94 47.4934 16.716C47.6054 16.492 47.7014 16.3 47.7814 16.14C47.8774 15.964 47.9894 15.772 48.1174 15.564C48.4054 15.084 48.7334 14.524 49.1014 13.884C49.4854 13.228 49.8054 12.74 50.0614 12.42C50.3334 12.1 50.6134 11.828 50.9014 11.604C51.2054 11.364 51.5334 11.14 51.8854 10.932C52.2534 10.724 52.7094 10.452 53.2534 10.116C53.7974 9.78 54.3734 9.58 54.9814 9.516C55.6054 9.436 56.1974 9.484 56.7574 9.66C57.9414 10.028 58.8134 10.852 59.3734 12.132C59.8534 13.316 59.9334 14.908 59.6134 16.908C59.1174 19.964 58.0534 22.116 56.4214 23.364ZM51.4054 21.228C52.7174 20.94 53.6294 20.084 54.1414 18.66C54.5734 17.46 54.6614 16.1 54.4054 14.58C54.0374 15.204 53.7014 15.852 53.3974 16.524C53.1094 17.196 52.8454 17.796 52.6054 18.324C52.0774 19.508 51.6774 20.476 51.4054 21.228Z" fill="black"/>
</svg>
