<svg width="24" height="24" viewBox="0 0 24 24" fill="none" xmlns="http://www.w3.org/2000/svg">
<path d="M1.52254 1.05441L15.3856 0.0592209C17.0684 -0.0938846 17.5092 0.0209445 18.591 0.748196L23.0384 3.73375C23.7596 4.23134 24 4.38445 24 4.9586V21.3026C24 22.3361 23.5993 22.9485 22.2371 23.025L6.13022 23.9437C5.08848 23.982 4.60768 23.8671 4.08681 23.2164L0.841402 19.1974C0.240401 18.4319 0 17.896 0 17.2453V2.70029C0 1.85821 0.400668 1.13096 1.52254 1.05441Z" fill="white"/>
<path fill-rule="evenodd" clip-rule="evenodd" d="M15.3856 0.0594077L1.52254 1.05459C0.400668 1.13115 0 1.8584 0 2.70048V17.2455C0 17.8962 0.240401 18.4703 0.841402 19.1976L4.08681 23.2549C4.60768 23.9056 5.12855 24.0587 6.13022 23.9821L22.2371 23.0635C23.5993 22.987 24 22.3745 24 21.3411V4.95878C24 4.42291 23.7997 4.26981 23.1185 3.81049C23.0785 3.77222 23.0384 3.77222 22.9983 3.73394L18.591 0.786659C17.5492 0.0211313 17.1085 -0.0554214 15.3856 0.0594077ZM6.49082 4.69085C5.16861 4.7674 4.88815 4.80568 4.12688 4.19326L2.24374 2.77703C2.04341 2.58565 2.12354 2.35599 2.64441 2.31771L15.9866 1.39908C17.1085 1.32253 17.6694 1.66702 18.1102 2.0115L20.394 3.58083C20.5142 3.61911 20.7546 3.88704 20.4341 3.88704L6.65108 4.69085H6.49082ZM4.96828 21.188V7.29364C4.96828 6.68122 5.16861 6.41329 5.72955 6.37501L21.5559 5.49465C22.0768 5.45638 22.3172 5.76259 22.3172 6.37501V20.1545C22.3172 20.7669 22.197 21.2645 21.3556 21.3028L6.21035 22.1449C5.36895 22.2214 4.96828 21.9152 4.96828 21.188ZM19.9132 8.05917C19.9933 8.48021 19.9132 8.90125 19.4725 8.93953L18.7513 9.09263V19.3507C18.1102 19.6952 17.5492 19.8483 17.0684 19.8483C16.3072 19.8483 16.1068 19.6186 15.5058 18.9297L10.6978 11.7337V18.6617L12.2204 19.0062C12.2204 19.0062 12.2204 19.8483 11.0184 19.8483L7.65275 20.0397C7.57262 19.8483 7.65275 19.389 7.97329 19.3124L8.85476 19.0828V9.89643L7.65275 9.78161C7.57262 9.36057 7.81302 8.74814 8.49416 8.70987L12.1002 8.48021L17.0684 15.7527V9.32229L15.7863 9.16918C15.7062 8.67159 16.0668 8.28883 16.5476 8.25055L19.9132 8.05917Z" fill="black"/>
</svg>
